<svg id="eOiueEj48DY1" xmlns="http://www.w3.org/2000/svg" xmlns:xlink="http://www.w3.org/1999/xlink" viewBox="0 0 300 300" shape-rendering="geometricPrecision" text-rendering="geometricPrecision" width="300" height="300"><path d="M164.753464,300L0,300L0,0h190.359716q31.093306,48.565866,32.312652,138.796628C223.891714,229.02739,222.149987,219.88238,164.753464,300" transform="matrix(1.080247 0 0 1 0.08981 0)" fill="#016fb9" stroke="rgba(63,87,135,0)" stroke-width="0.6"/><path d="" fill="none" stroke="#3f5787" stroke-width="0.6"/><path d="" fill="none" stroke="#3f5787" stroke-width="0.6"/><path d="M88.543128,0.000002q39.018496,32.714514,55.479425,107.093926t39.628159,97.54677q23.776905,7.925675-49.992445,53.650723t-50.602117,41.708578l-83.056152-.000001.000004-300.000001l88.543126.000005Z" transform="matrix(.734951 0 0 1 0.000003 0.000003)" fill="#6d8ea0" stroke-width="0.6"/><path d="" fill="none" stroke="#3f5787" stroke-width="0.6"/><path d="M150,0q29.384036,16.2535,44.625719,74.781561t-60.966732,75.218438q-19.509352,65.614708,31.093033,80.856391t-37.799375,69.143608h-126.952646l-.000002-300L150,0Z" transform="matrix(0 0.73252-.651839 0 195.551706 0.000009)" fill="#22aed1" stroke-width="0.6"/><rect width="45.714338" height="50" rx="12" ry="12" transform="matrix(.874999 0 0 1 100.378963 118.247137)" fill="rgba(1,32,15,0.13)" stroke="#01200f" stroke-width="7"/><rect width="60" height="60" rx="21" ry="21" transform="translate(85.468756 143.247137)" fill="#ffd408" stroke-width="0"/><rect width="60" height="60" rx="21" ry="21" transform="translate(95.468756 143.247137)" fill="#cfbc09" stroke-width="0"/><rect width="55" height="60" rx="21" ry="21" transform="translate(92.969811 143.247137)" fill="#eec70b" stroke-width="0"/><ellipse rx="5" ry="5" transform="translate(120.468756 173.247137)" fill="#0c0a3e" stroke-width="0"/><rect width="4.568865" height="21.816214" rx="0" ry="0" transform="matrix(-.875491 0 0 0.687562 122.468756 174.083053)" fill="#0c0a3e" stroke-width="0"/><path d="" fill="none" stroke="#3f5787" stroke-width="0.6"/><polygon points="-27.5,-30 -27.181802,-27.818198 -25,-27.5 -27.181802,-27.181802 -27.5,-25 -27.818198,-27.181802 -30,-27.5 -27.818198,-27.818198 -27.5,-30" transform="translate(197.545474 182.670691)" fill="#ffd408" stroke-width="0"/><polygon points="-22.5,-30 -21.545406,-23.454594 -15,-22.5 -21.545406,-21.545406 -22.5,-15 -23.454594,-21.545406 -30,-22.5 -23.454594,-23.454594 -22.5,-30" transform="translate(184.461305 165.747137)" fill="#ffd408" stroke-width="0"/><polygon points="-17.5,-30 -15.90901,-19.09099 -5,-17.5 -15.90901,-15.90901 -17.5,-5 -19.09099,-15.90901 -30,-17.5 -19.09099,-19.09099 -17.5,-30" transform="translate(72.080839 155)" fill="#ffd408" stroke-width="0"/><polygon points="-25,-30 -24.363604,-25.636396 -20,-25 -24.363604,-24.363604 -25,-20 -25.636396,-24.363604 -30,-25 -25.636396,-25.636396 -25,-30" transform="translate(84.580839 261.90057)" fill="#ffd408" stroke-width="0"/><ellipse rx="7.5" ry="7.5" transform="translate(74.194343 224.376876)" fill="none" stroke="#eec70b" stroke-width="5"/><rect width="25" height="5" rx="1" ry="1" transform="translate(81.694343 221.876876)" fill="#eec70b" stroke-width="0"/><rect width="5" height="5" rx="1" ry="1" transform="translate(91.694343 224.90057)" fill="#eec70b" stroke-width="0"/><rect width="5" height="7" rx="1" ry="1" transform="translate(101.694343 224.90057)" fill="#eec70b" stroke-width="0"/></svg>
