    <svg
      classname="Logo"
      version="1.0"
      xmlns="http://www.w3.org/2000/svg"
      width="138.000000pt"
      height="82.000000pt"
      viewBox="0 0 138.000000 82.000000"
      preserveAspectRatio="xMidYMid meet"
    >
      <g
        transform="translate(0.000000,82.000000) scale(0.100000,-0.100000)"
        stroke="none"
      >
        <path d="M986 743 c-14 -36 -5 -50 58 -83 l63 -34 6 -89 c5 -69 10 -92 23 -102 17 -12 16 -13 -4 -26 -19 -12 -22 -23 -22 -81 0 -37 -5 -89 -11 -116 l-10 -50 -55 -7 c-52 -6 -54 -8 -54 -36 l0 -29 76 0 c86 0 121 15 149 62 15 26 16 45 10 140 l-7 110 22 -12 c17 -9 26 -8 46 5 53 35 9 104 -50 77 -24 -11 -25 -10 -31 56 -3 37 -9 87 -13 111 l-7 45 -92 37 c-76 30 -93 34 -97 22z m178 -497 c-3 -15 -8 -25 -11 -23 -2 3 -1 17 3 31 3 15 8 25 11 23 2 -3 1 -17 -3 -31z"></path>
        <path d="M194 711 c-46 -28 -58 -67 -50 -167 6 -82 6 -84 -13 -72 -15 9 -25 9 -45 0 -32 -14 -35 -51 -6 -77 17 -15 24 -16 46 -6 15 6 28 10 29 9 1 -2 8 -59 14 -127 6 -69 13 -127 15 -129 10 -9 182 -69 189 -65 4 2 7 15 7 29 0 20 -11 30 -64 56 l-63 31 -7 111 c-5 88 -10 114 -24 124 -16 12 -16 14 0 26 12 9 19 38 26 100 6 48 15 93 20 98 6 6 34 13 61 16 48 4 51 6 51 33 l0 29 -77 0 c-59 0 -86 -5 -109 -19z"></path>
        <path d="M610 691 c-74 -24 -139 -82 -166 -147 -22 -52 -18 -160 7 -211 27 -56 91 -110 153 -128 71 -21 86 -20 86 10 0 19 -5 25 -22 25 -37 1 -102 35 -130 68 -37 44 -51 94 -46 163 3 47 10 66 35 96 63 79 154 103 232 63 50 -25 99 -85 107 -129 6 -30 3 -38 -22 -59 l-28 -25 -12 44 c-24 96 -66 139 -134 139 -39 0 -90 -21 -113 -47 -16 -18 -16 -22 -2 -33 12 -10 20 -9 40 4 26 17 61 21 69 7 3 -4 -13 -16 -35 -26 -69 -31 -98 -92 -69 -145 15 -28 73 -43 134 -36 85 11 246 96 246 130 0 7 -7 36 -16 65 -18 61 -70 123 -128 153 -44 22 -145 33 -186 19z m85 -257 c5 -34 3 -49 -7 -55 -23 -15 -35 -10 -41 19 -3 15 -8 34 -12 43 -4 10 2 19 17 27 34 16 35 16 43 -34z m68 0 c8 -8 -3 -34 -14 -34 -5 0 -9 9 -9 20 0 19 11 26 23 14z"></path>
        <path d="M817 302 c-16 -18 -16 -20 3 -37 19 -18 22 -18 37 -2 16 16 16 18 -3 37 -20 20 -21 20 -37 2z"></path>
        <path d="M771 271 c-9 -6 -11 -18 -7 -34 4 -19 11 -24 26 -20 28 7 33 19 20 43 -12 22 -18 24 -39 11z"></path>
        <path d="M718 253 c-18 -5 -22 -20 -12 -46 5 -14 54 -12 54 2 -1 17 -13 51 -19 50 -3 -1 -14 -3 -23 -6z"></path>
      </g>
    </svg>